<?xml version="1.0" encoding="utf-8"?>
<!-- Generator: Adobe Illustrator 18.1.1, SVG Export Plug-In . SVG Version: 6.00 Build 0)  -->
<svg version="1.1" id="Layer_1" xmlns="http://www.w3.org/2000/svg" xmlns:xlink="http://www.w3.org/1999/xlink" x="0px" y="0px"
	 viewBox="0 0 156.7 228.7" enable-background="new 0 0 156.7 228.7" xml:space="preserve">
<g>
	<path fill="#545754" d="M59,104.9c8.8-18.2,25.6-19.8,37-3.1c2.5,3.6,3.5,3.1,6.9,1.6c15.8-7,29,1.7,29.2,19c0,3.5,0.4,6,3.2,8.9
		c10.4,10.7,9.3,22.5-2.2,31.6c-1.7,1.4-4.6,1.5-4.5,4.8c0.4,9.6-3.8,16.4-12.8,19.9c-2.7,1.1-2,3.1-2.2,5
		c-1.1,7.6-4.5,13.7-11.8,16.7c-3.5,1.4-3.7,4.2-5,6.9c-3.5,7.7-9.3,12.5-18.2,12.4c-8.7-0.1-15.2-4.1-18.3-12.2
		c-1.5-3.8-3.3-6.2-6.9-8.1c-8.3-4.3-7-14.4-11.2-20.1c-4.2-5.8-12.8-8.9-13.9-17.5c-0.5-4-1.8-6.4-5.1-9
		c-10.6-8-11.2-20.4-2.3-30.3c1.9-2.1,4.5-3.2,4.6-7.2C25.8,100.9,38.6,93.7,59,104.9z"/>
	<path fill="#545754" d="M47.7,72.7C46,46.9,56.7,26,70.8,6.2c5.8-8.2,9.2-8.3,14.6-0.5c13.2,19,23.8,38.9,24,62.9
		c0,5.4,3.1,3.8,6.2,3.1c12.3-2.8,24.4-1.8,36.1,3c4.7,1.9,6.1,4.6,4.2,9.5c-4.2,11-10.2,20.7-19.9,28.6
		c-7.5-13.5-17.6-20.9-33.2-14.2c-3.4,1.5-4.1-0.9-5.6-2.4C84.1,82.1,72,82,59.3,96c-1.7,1.9-2.2,3-5.5,2
		c-16.4-5.1-23.5-2-33.1,13.8c-9.7-7.6-15.7-17.5-20-28.7c-2-5.2-0.3-8,4.8-9.9C19.3,67.9,33,68.3,47.7,72.7z"/>
	<path fill="#E6E6E3" d="M62.1,190.1c-0.6,3.3-2.1,5.6-5.8,5.7c-3.7,0.1-5.8-1.9-6-5.4c-0.2-3.6,2.6-5.7,5.7-6
		C59.3,184.2,61.3,186.8,62.1,190.1z"/>
	<path fill="#E6E7E5" d="M64.3,137c-0.5,3.6-2.6,5.5-6.2,5.4c-3.6-0.1-5.7-2.6-5.6-5.9c0.1-3.4,2.8-5.8,6.1-5.5
		C61.7,131.2,64.2,133.3,64.3,137z"/>
	<path fill="#E5E6E3" d="M78.7,102.5c-0.1,3.4-2.1,5.2-5.7,5.3c-3.7,0-5.8-2.1-5.8-5.5c0-3.3,2.1-5.9,5.7-5.7
		C76.2,96.7,78.7,98.4,78.7,102.5z"/>
	<path fill="#E8E8E6" d="M32.2,110.8c1.1-3,2.6-5.7,6.4-5.2c3.4,0.5,5.6,2.5,5.2,6.2c-0.3,3.6-2.7,5.6-6.1,5.4
		C34.2,117,32.8,114.1,32.2,110.8z"/>
	<path fill="#E7E6E4" d="M35.8,140c-0.5,3.6-2.4,5.4-6.1,5c-3.7-0.5-5.3-2.9-4.9-6.4c0.4-3,2.4-4.7,5.7-4.6
		C34.3,134.2,35.8,136.4,35.8,140z"/>
	<path fill="#EAEBE8" d="M95.4,137.7c-0.1,2.1-1.7,4.4-5.3,4.7c-3.7,0.2-5.5-2-5.7-5.4c-0.1-3.4,1.8-6,5.2-6.1
		C92.8,130.8,95.3,132.6,95.4,137.7z"/>
	<path fill="#E6E6E4" d="M78.7,206.8c0,3.6-1.7,5.6-5.4,5.8c-3.7,0.2-6-1.8-6.1-5.1c-0.2-3.3,1.8-5.7,5.5-5.8
		C76.1,201.5,78.4,203,78.7,206.8z"/>
	<path fill="#EEEEEC" d="M70,171.2c-4,0-5.8-1.8-5.8-5.6c0-3.3,1.7-5.2,4.7-5.6c3.6-0.5,5.7,1.7,6.1,5.2
		C75.3,168.8,73.5,170.9,70,171.2z"/>
	<path fill="#EEEFEC" d="M45.9,166.2c-0.3,3.8-2.4,5.5-6,5.3c-3.7-0.2-5.5-2.4-5.1-6.1c0.3-3.1,2.2-4.8,5.4-4.8
		C43.9,160.7,45.9,162.4,45.9,166.2z"/>
</g>
</svg>
